# Blender 3.4.1
# www.blender.org
mtllib Key.mtl
o Key
v -0.048406 0.080392 0.012482
v -0.061822 0.072145 0.041634
v -0.096360 0.060290 -0.017655
v -0.065036 0.074324 -0.017555
v -0.123603 0.164084 0.011958
v -0.131627 0.150387 0.039454
v -0.147675 0.122992 0.039454
v -0.155713 0.109272 0.011958
v -0.147675 0.122992 -0.015537
v -0.131627 0.150387 -0.015537
v -0.230421 0.183616 0.011958
v -0.227763 0.167966 0.039454
v -0.222448 0.136664 0.039454
v -0.219790 0.121014 0.011958
v -0.222448 0.136664 -0.015537
v -0.227763 0.167966 -0.015537
v -0.336096 0.128761 0.011958
v -0.323041 0.117665 0.041634
v -0.296931 0.095474 0.041634
v -0.283648 0.084406 0.011958
v -0.296931 0.095474 -0.017718
v -0.323041 0.117665 -0.017718
v -0.379022 0.027528 0.012711
v -0.362849 0.025818 0.040881
v -0.329916 0.023563 0.041200
v -0.312365 0.023010 0.012053
v -0.329294 0.024800 -0.017433
v -0.362996 0.027061 -0.016416
v -0.348103 -0.089795 0.012711
v -0.335374 -0.079671 0.040881
v -0.308864 -0.060113 0.041200
v -0.294801 -0.050175 0.012055
v -0.307747 -0.060845 -0.017433
v -0.334899 -0.080820 -0.016416
v -0.236709 -0.162666 0.011958
v -0.234800 -0.141998 0.047908
v -0.231014 -0.100678 0.047908
v -0.230072 -0.080473 0.011958
v -0.231014 -0.100678 -0.023992
v -0.234800 -0.141998 -0.023992
v -0.105918 -0.138473 0.011958
v -0.116956 -0.119073 0.050619
v -0.139031 -0.080272 0.050619
v -0.150069 -0.060872 0.011958
v -0.139031 -0.080272 -0.026702
v -0.116956 -0.119073 -0.026702
v -0.043428 -0.040542 0.012619
v -0.057132 -0.033481 0.041634
v -0.089123 -0.022555 0.041642
v -0.107471 -0.016555 0.012254
v -0.092898 -0.023840 -0.017623
v -0.060627 -0.035634 -0.017464
v -0.111115 0.053066 0.012197
v -0.061589 0.044628 -0.017271
v -0.060249 -0.012242 -0.017271
v -0.043698 0.046963 0.012991
v -0.042468 -0.014632 0.012993
v -0.092866 0.058962 0.041634
v -0.057184 0.043083 0.041634
v -0.055914 -0.010792 0.041634
v 0.104934 0.039350 -0.016393
v 0.104934 -0.010809 -0.016393
v 0.102336 0.041114 0.013113
v 0.100693 0.038075 0.040775
v 0.100693 -0.009442 0.040775
v 0.184226 0.040119 -0.017053
v 0.184226 -0.011374 -0.017053
v 0.173787 0.041563 0.013576
v 0.189200 0.038095 0.041634
v 0.189156 -0.009247 0.041650
v 0.199952 0.041596 0.013552
v 0.300962 0.041622 -0.018631
v 0.300962 -0.012618 -0.018631
v 0.298199 0.043023 0.013767
v 0.296451 0.039490 0.043187
v 0.296451 -0.010487 0.043187
v 0.349649 0.034475 -0.011087
v 0.349638 -0.007458 -0.011082
v 0.348042 0.036264 0.012465
v 0.348018 -0.009620 0.012472
v 0.346755 0.033930 0.035293
v 0.346712 -0.006852 0.035296
v 0.184657 -0.117486 0.034921
v 0.185215 -0.118597 0.007227
v 0.159884 -0.116225 -0.006367
v 0.113558 -0.118498 0.018192
v 0.113574 -0.115918 -0.005607
v 0.158950 -0.119200 0.018146
v 0.296890 -0.012480 0.030062
v 0.299801 -0.013953 -0.003538
v 0.200920 -0.011161 0.029085
v 0.198637 -0.012688 -0.002895
v 0.175027 -0.011249 0.029117
v 0.171866 -0.012712 -0.002863
v 0.255076 0.040650 -0.017611
v 0.255076 -0.011814 -0.017611
v 0.254177 -0.009677 0.042315
v 0.254130 0.038684 0.042290
v 0.254498 0.042071 0.013728
v 0.103842 -0.012211 -0.002730
v 0.101106 -0.011268 0.028331
v 0.257960 -0.077854 0.001675
v 0.258846 -0.075035 0.035332
v 0.303521 -0.079379 0.002721
v 0.191056 -0.078727 0.034485
v 0.191367 -0.081436 0.003300
v 0.304445 -0.076936 0.035396
v 0.254855 -0.013063 -0.003051
v 0.254321 -0.011444 0.029548
v 0.257738 -0.118895 0.004016
v 0.258647 -0.117541 0.037711
vn 0.9063 0.4222 -0.0202
vn 0.4893 0.8721 -0.0024
vn 0.2750 0.5056 0.8178
vn 0.5176 0.2442 0.8200
vn -0.2129 -0.3439 0.9145
vn -0.3755 -0.1328 0.9173
vn -0.5119 -0.8590 0.0071
vn -0.9350 -0.3525 0.0376
vn -0.2159 -0.3440 -0.9138
vn -0.3982 -0.1463 -0.9055
vn 0.2766 0.5039 -0.8183
vn 0.5048 0.2366 -0.8302
vn -0.1497 0.9887 -0.0000
vn -0.0799 0.5701 0.8177
vn 0.0773 -0.4012 0.9127
vn 0.1686 -0.9857 -0.0000
vn 0.0773 -0.4012 -0.9127
vn -0.0799 0.5701 -0.8177
vn -0.7360 0.6770 0.0028
vn -0.4123 0.3909 0.8229
vn 0.3113 -0.2755 0.9095
vn 0.7330 -0.6803 0.0006
vn 0.3088 -0.2754 -0.9104
vn -0.4170 0.3919 -0.8201
vn -0.9974 0.0722 0.0065
vn -0.5741 0.0389 0.8179
vn 0.3993 -0.0389 0.9160
vn 0.9950 -0.0990 0.0094
vn 0.3965 -0.0434 -0.9170
vn -0.5854 0.0425 -0.8096
vn -0.8109 -0.5851 0.0059
vn -0.4904 -0.3365 0.8039
vn 0.2722 0.2558 0.9276
vn 0.7690 0.6392 0.0088
vn 0.2654 0.2585 -0.9288
vn -0.4973 -0.3458 -0.7957
vn -0.1871 -0.9823 0.0028
vn -0.1363 -0.5589 0.8180
vn 0.0035 0.4135 0.9105
vn 0.1080 0.9941 -0.0002
vn 0.0009 0.4118 -0.9113
vn -0.1391 -0.5621 -0.8153
vn 0.5530 -0.8332 -0.0046
vn 0.3305 -0.4591 0.8246
vn -0.1813 0.3769 0.9084
vn -0.4977 0.8673 0.0054
vn -0.1806 0.3770 -0.9085
vn 0.3327 -0.4547 -0.8262
vn 0.9536 -0.3001 -0.0229
vn 0.5749 -0.1555 0.8033
vn -0.3371 0.1684 0.9263
vn -0.9365 0.3485 0.0396
vn -0.3602 0.1849 -0.9144
vn 0.5601 -0.1454 -0.8155
vn 0.5498 0.8353 0.0079
vn 0.2456 0.2342 0.9406
vn 0.2473 0.2066 -0.9466
vn 0.2342 -0.1807 -0.9552
vn 0.5763 -0.8172 0.0031
vn 0.2348 -0.2066 0.9499
vn 0.0152 0.9995 0.0285
vn 0.0075 0.6801 -0.7331
vn -0.0012 -0.6720 -0.7405
vn -0.0100 0.6896 -0.7242
vn -0.0078 -0.6733 -0.7394
vn 0.0096 0.6594 0.7517
vn 0.0015 -0.6544 0.7561
vn -0.0067 -0.6509 0.7591
vn -0.0103 0.6626 0.7489
vn -0.2503 -0.9063 0.3406
vn -0.0042 0.9994 0.0338
vn -0.0061 0.9993 0.0374
vn -0.6442 -0.5093 0.5706
vn -0.6363 -0.5643 -0.5261
vn 0.5563 -0.6117 -0.5624
vn 0.5733 -0.5535 0.6041
vn -0.7037 0.0439 -0.7091
vn 0.2819 -0.3652 -0.8872
vn -0.0195 -0.6759 -0.7368
vn -0.0210 0.6908 -0.7227
vn 0.0855 0.6881 -0.7205
vn 0.0762 -0.6705 -0.7379
vn -0.0117 -0.7061 -0.7080
vn 0.3323 -0.8807 -0.3376
vn 0.3509 -0.8264 0.4403
vn 0.0655 -0.6480 0.7588
vn -0.0206 -0.6544 0.7559
vn -0.0167 -0.6241 0.7812
vn 0.0570 0.9977 0.0371
vn 0.7335 0.6769 0.0621
vn 0.6778 0.5149 -0.5248
vn 0.0761 0.6592 0.7481
vn 0.6364 0.5118 0.5771
vn 0.2729 -0.2442 0.9305
vn 0.5924 -0.5087 0.6247
vn -0.0154 0.9992 0.0368
vn -0.0209 0.6639 0.7475
vn 0.6696 -0.5179 -0.5324
vn 0.7169 -0.6946 0.0596
vn 0.6273 -0.5187 0.5809
vn -0.3175 -0.8374 0.4450
vn 0.2479 -0.9071 0.3401
vn 0.3036 -0.8928 -0.3327
vn -0.2945 -0.8909 -0.3458
vn 0.5960 -0.6216 -0.5083
vn -0.6950 0.1398 0.7053
vn -0.5547 -0.6625 0.5033
vn 0.5246 -0.6856 0.5048
vn -0.3023 -0.8897 -0.3422
vn 0.5357 -0.5536 -0.6375
vn -0.5446 -0.5514 -0.6320
vt 0.559059 0.559059
vt 0.559059 0.559059
vt 0.559059 0.559059
vt 0.559059 0.559059
vt 0.559059 0.559059
vt 0.559059 0.559059
vt 0.559059 0.559059
vt 0.559059 0.559059
vt 0.559059 0.559059
vt 0.559059 0.559059
vt 0.559059 0.559059
vt 0.559059 0.559059
vt 0.559059 0.559059
vt 0.559059 0.559059
vt 0.559059 0.559059
vt 0.559059 0.559059
vt 0.559059 0.559059
vt 0.559059 0.559059
vt 0.559059 0.559059
vt 0.559059 0.559059
vt 0.559059 0.559059
vt 0.559059 0.559059
vt 0.559059 0.559059
vt 0.559059 0.559059
vt 0.559059 0.559059
vt 0.559059 0.559059
vt 0.559059 0.559059
vt 0.559059 0.559059
vt 0.559059 0.559059
vt 0.559059 0.559059
vt 0.559059 0.559059
vt 0.559059 0.559059
vt 0.559059 0.559059
vt 0.559059 0.559059
vt 0.559059 0.559059
vt 0.559059 0.559059
vt 0.559059 0.559059
vt 0.559059 0.559059
vt 0.559059 0.559059
vt 0.559059 0.559059
vt 0.559059 0.559059
vt 0.559059 0.559059
vt 0.559059 0.559059
vt 0.559059 0.559059
vt 0.559059 0.559059
vt 0.559059 0.559059
vt 0.559059 0.559059
vt 0.559059 0.559059
vt 0.559059 0.559059
vt 0.559059 0.559059
vt 0.559059 0.559059
vt 0.559059 0.559059
vt 0.559059 0.559059
vt 0.559059 0.559059
vt 0.559059 0.559059
vt 0.559059 0.559059
vt 0.559059 0.559059
vt 0.559059 0.559059
vt 0.559059 0.559059
vt 0.559059 0.559059
vt 0.559059 0.559059
vt 0.559059 0.559059
vt 0.559059 0.559059
vt 0.559059 0.559059
vt 0.559059 0.559059
vt 0.559059 0.559059
vt 0.559059 0.559059
vt 0.559059 0.559059
vt 0.559059 0.559059
vt 0.559059 0.559059
vt 0.559059 0.559059
vt 0.559059 0.559059
vt 0.559059 0.559059
vt 0.559059 0.559059
vt 0.559059 0.559059
vt 0.559059 0.559059
vt 0.559059 0.559059
vt 0.559059 0.559059
vt 0.559059 0.559059
vt 0.559059 0.559059
vt 0.559059 0.559059
vt 0.559059 0.559059
vt 0.559059 0.559059
vt 0.559059 0.559059
vt 0.559059 0.559059
vt 0.559059 0.559059
vt 0.559059 0.559059
vt 0.559059 0.559059
vt 0.559059 0.559059
vt 0.559059 0.559059
vt 0.559059 0.559059
vt 0.559059 0.559059
vt 0.559059 0.559059
vt 0.559059 0.559059
vt 0.559059 0.559059
vt 0.559059 0.559059
vt 0.559059 0.559059
vt 0.559059 0.559059
vt 0.559059 0.559059
vt 0.559059 0.559059
vt 0.559059 0.559059
vt 0.559059 0.559059
vt 0.559059 0.559059
vt 0.559059 0.559059
vt 0.559059 0.559059
vt 0.559059 0.559059
vt 0.559059 0.559059
vt 0.559059 0.559059
vt 0.559059 0.559059
vt 0.559059 0.559059
vt 0.559059 0.559059
s 1
usemtl Material
f 1/1/1 5/5/2 6/6/3 2/2/4
f 2/2/4 6/6/3 7/7/5 58/58/6
f 58/58/6 7/7/5 8/8/7 53/53/8
f 53/53/8 8/8/7 9/9/9 3/3/10
f 3/3/10 9/9/9 10/10/11 4/4/12
f 4/4/12 10/10/11 5/5/2 1/1/1
f 5/5/2 11/11/13 12/12/14 6/6/3
f 6/6/3 12/12/14 13/13/15 7/7/5
f 7/7/5 13/13/15 14/14/16 8/8/7
f 8/8/7 14/14/16 15/15/17 9/9/9
f 9/9/9 15/15/17 16/16/18 10/10/11
f 10/10/11 16/16/18 11/11/13 5/5/2
f 11/11/13 17/17/19 18/18/20 12/12/14
f 12/12/14 18/18/20 19/19/21 13/13/15
f 13/13/15 19/19/21 20/20/22 14/14/16
f 14/14/16 20/20/22 21/21/23 15/15/17
f 15/15/17 21/21/23 22/22/24 16/16/18
f 16/16/18 22/22/24 17/17/19 11/11/13
f 17/17/19 23/23/25 24/24/26 18/18/20
f 18/18/20 24/24/26 25/25/27 19/19/21
f 19/19/21 25/25/27 26/26/28 20/20/22
f 20/20/22 26/26/28 27/27/29 21/21/23
f 21/21/23 27/27/29 28/28/30 22/22/24
f 22/22/24 28/28/30 23/23/25 17/17/19
f 23/23/25 29/29/31 30/30/32 24/24/26
f 24/24/26 30/30/32 31/31/33 25/25/27
f 25/25/27 31/31/33 32/32/34 26/26/28
f 26/26/28 32/32/34 33/33/35 27/27/29
f 27/27/29 33/33/35 34/34/36 28/28/30
f 28/28/30 34/34/36 29/29/31 23/23/25
f 29/29/31 35/35/37 36/36/38 30/30/32
f 30/30/32 36/36/38 37/37/39 31/31/33
f 31/31/33 37/37/39 38/38/40 32/32/34
f 32/32/34 38/38/40 39/39/41 33/33/35
f 33/33/35 39/39/41 40/40/42 34/34/36
f 34/34/36 40/40/42 35/35/37 29/29/31
f 35/35/37 41/41/43 42/42/44 36/36/38
f 36/36/38 42/42/44 43/43/45 37/37/39
f 37/37/39 43/43/45 44/44/46 38/38/40
f 38/38/40 44/44/46 45/45/47 39/39/41
f 39/39/41 45/45/47 46/46/48 40/40/42
f 40/40/42 46/46/48 41/41/43 35/35/37
f 41/41/43 47/47/49 48/48/50 42/42/44
f 42/42/44 48/48/50 49/49/51 43/43/45
f 43/43/45 49/49/51 50/50/52 44/44/46
f 44/44/46 50/50/52 51/51/53 45/45/47
f 45/45/47 51/51/53 52/52/54 46/46/48
f 46/46/48 52/52/54 47/47/49 41/41/43
f 56/56/55 1/1/1 2/2/4 59/59/56
f 59/59/56 2/2/4 58/58/6
f 3/3/10 4/4/12 54/54/57
f 54/54/57 4/4/12 1/1/1 56/56/55
f 52/52/54 55/55/58 57/57/59 47/47/49
f 51/51/53 55/55/58 52/52/54
f 51/51/53 3/3/10 54/54/57 55/55/58
f 50/50/52 53/53/8 3/3/10 51/51/53
f 49/49/51 58/58/6 53/53/8 50/50/52
f 48/48/50 60/60/60 49/49/51
f 60/60/60 59/59/56 58/58/6 49/49/51
f 47/47/49 57/57/59 60/60/60 48/48/50
f 54/54/57 56/56/55 63/63/61 61/61/62
f 62/62/63 61/61/62 66/66/64 67/67/65
f 64/64/66 65/65/67 70/70/68 69/69/69
f 59/59/56 60/60/60 65/65/67 64/64/66
f 55/55/58 54/54/57 61/61/62 62/62/63
f 56/56/55 59/59/56 64/64/66 63/63/61
f 57/57/59 101/101/70 65/65/67 60/60/60
f 66/66/64 68/68/71 71/71/72
f 68/68/71 69/69/69 71/71/72
f 83/83/73 84/84/74 110/110/75 111/111/76
f 63/63/61 64/64/66 69/69/69 68/68/71
f 61/61/62 63/63/61 68/68/71 66/66/64
f 106/106/77 102/102/78 110/110/75 84/84/74
f 96/96/79 95/95/80 72/72/81 73/73/82
f 108/108/83 96/96/79 73/73/82 90/90/84
f 89/89/85 76/76/86 97/97/87 109/109/88
f 72/72/81 74/74/89 79/79/90 77/77/91
f 74/74/89 75/75/92 81/81/93 79/79/90
f 89/89/85 109/109/88 103/103/94 107/107/95
f 99/99/96 98/98/97 75/75/92 74/74/89
f 95/95/80 99/99/96 74/74/89 72/72/81
f 98/98/97 97/97/87 76/76/86 75/75/92
f 78/78/98 77/77/91 79/79/90 80/80/99
f 80/80/99 79/79/90 81/81/93 82/82/100
f 75/75/92 76/76/86 82/82/100 81/81/93
f 73/73/82 72/72/81 77/77/91 78/78/98
f 91/91/101 109/109/88 97/97/87 70/70/68
f 93/93/102 94/94/103 92/92/104 91/91/101
f 92/92/104 108/108/83 102/102/78 106/106/77
f 90/90/84 89/89/85 107/107/95 104/104/105
f 108/108/83 90/90/84 104/104/105 102/102/78
f 91/91/101 92/92/104 106/106/77 105/105/106
f 109/109/88 91/91/101 105/105/106 103/103/94
f 93/93/102 101/101/70 86/86/107 88/88/108
f 103/103/94 105/105/106 83/83/73 111/111/76
f 100/100/109 94/94/103 85/85/110 87/87/111
f 105/105/106 106/106/77 84/84/74 83/83/73
f 101/101/70 100/100/109 87/87/111 86/86/107
f 111/111/76 110/110/75 102/102/78 103/103/94
f 86/86/107 87/87/111 85/85/110 88/88/108
f 94/94/103 93/93/102 88/88/108 85/85/110
f 104/104/105 107/107/95 103/103/94 102/102/78
f 69/69/69 70/70/68 97/97/87 98/98/97
f 66/66/64 71/71/72 99/99/96 95/95/80
f 71/71/72 69/69/69 98/98/97 99/99/96
f 67/67/65 66/66/64 95/95/80 96/96/79
f 89/89/85 90/90/84 80/80/99
f 90/90/84 73/73/82 78/78/98 80/80/99
f 76/76/86 89/89/85 80/80/99 82/82/100
f 70/70/68 65/65/67 101/101/70 93/93/102
f 70/70/68 93/93/102 91/91/101
f 62/62/63 67/67/65 94/94/103 100/100/109
f 92/92/104 94/94/103 67/67/65
f 92/92/104 67/67/65 96/96/79 108/108/83
f 57/57/59 55/55/58 62/62/63 100/100/109
f 101/101/70 57/57/59 100/100/109
